<svg xmlns="http://www.w3.org/2000/svg" width="1200" height="300" viewBox="0 0 1200 300" role="img" aria-labelledby="title desc">
<title id="title">Satvik Praveen</title>
<desc id="desc">PhD Researcher in Medical AI, ML Engineer, Generative AI</desc>
<defs>
  <linearGradient id="bg" x1="0" y1="0" x2="1" y2="1">
    <stop offset="0" stop-color="#0d1117"/><stop offset="1" stop-color="#111827"/>
  </linearGradient>
  <linearGradient id="accent" x1="0" y1="0" x2="1" y2="0">
    <stop offset="0" stop-color="#2dd4bf"/><stop offset="0.55" stop-color="#38bdf8"/><stop offset="1" stop-color="#818cf8"/>
  </linearGradient>
  <radialGradient id="halo" cx="0.5" cy="0.5" r="0.5">
    <stop offset="0" stop-color="#818cf8" stop-opacity="0.22"/><stop offset="1" stop-color="#818cf8" stop-opacity="0"/>
  </radialGradient>
  <pattern id="dots" width="22" height="22" patternUnits="userSpaceOnUse">
    <circle cx="1.5" cy="1.5" r="1.2" fill="#30363d"/>
  </pattern>
  <clipPath id="clip"><rect width="1200" height="300" rx="18"/></clipPath>
  <style>
    .name { font: 700 54px -apple-system, BlinkMacSystemFont, 'Segoe UI', Helvetica, Arial, sans-serif; fill: #e6edf3; letter-spacing: -0.5px; }
    .tag  { font: 500 21px -apple-system, BlinkMacSystemFont, 'Segoe UI', Helvetica, Arial, sans-serif; fill: #e6edf3; opacity: .92; }
    .sub  { font: 400 15.5px -apple-system, BlinkMacSystemFont, 'Segoe UI', Helvetica, Arial, sans-serif; fill: #8b949e; }
    .edge { stroke: #38bdf8; stroke-width: 1.2; stroke-opacity: .35; animation: edgePulse 4s ease-in-out infinite; }
    .node { fill: #2dd4bf; stroke: #0d1117; stroke-width: 2; animation: nodePulse 3s ease-in-out infinite; }
    @keyframes edgePulse { 0%,100% { stroke-opacity:.25 } 50% { stroke-opacity:.6 } }
    @keyframes nodePulse { 0%,100% { opacity:.7 } 50% { opacity:1 } }
  </style>
</defs>
<g clip-path="url(#clip)">
  <rect width="1200" height="300" fill="url(#bg)"/>
  <rect width="1200" height="300" fill="url(#dots)" opacity=".55"/>
  <circle cx="1010" cy="150" r="230" fill="url(#halo)"/>
  <line x1="860" y1="70" x2="935" y2="140" class="edge" style="animation-delay:0.00s"/>
<line x1="935" y1="140" x2="1010" y2="60" class="edge" style="animation-delay:0.37s"/>
<line x1="1010" y1="60" x2="1090" y2="120" class="edge" style="animation-delay:0.74s"/>
<line x1="1090" y1="120" x2="1150" y2="60" class="edge" style="animation-delay:1.11s"/>
<line x1="935" y1="140" x2="985" y2="120" class="edge" style="animation-delay:1.48s"/>
<line x1="985" y1="120" x2="1090" y2="120" class="edge" style="animation-delay:1.85s"/>
<line x1="860" y1="70" x2="800" y2="140" class="edge" style="animation-delay:2.22s"/>
<line x1="800" y1="140" x2="880" y2="205" class="edge" style="animation-delay:2.59s"/>
<line x1="880" y1="205" x2="960" y2="245" class="edge" style="animation-delay:2.96s"/>
<line x1="960" y1="245" x2="1040" y2="190" class="edge" style="animation-delay:3.33s"/>
<line x1="1040" y1="190" x2="1120" y2="235" class="edge" style="animation-delay:3.70s"/>
<line x1="1120" y1="235" x2="1160" y2="165" class="edge" style="animation-delay:0.07s"/>
<line x1="1160" y1="165" x2="1090" y2="120" class="edge" style="animation-delay:0.44s"/>
<line x1="935" y1="140" x2="1040" y2="190" class="edge" style="animation-delay:0.81s"/>
<line x1="985" y1="120" x2="1040" y2="190" class="edge" style="animation-delay:1.18s"/>
<line x1="880" y1="205" x2="820" y2="250" class="edge" style="animation-delay:1.55s"/>
<line x1="820" y1="250" x2="960" y2="245" class="edge" style="animation-delay:1.92s"/>
<line x1="800" y1="140" x2="820" y2="250" class="edge" style="animation-delay:2.29s"/>
<line x1="1010" y1="60" x2="985" y2="120" class="edge" style="animation-delay:2.66s"/>
<line x1="1150" y1="60" x2="1160" y2="165" class="edge" style="animation-delay:3.03s"/>
<circle cx="860" cy="70" r="7" class="node" style="animation-delay:0.00s"/>
<circle cx="935" cy="140" r="5" class="node" style="animation-delay:0.53s"/>
<circle cx="1010" cy="60" r="5" class="node" style="animation-delay:1.06s"/>
<circle cx="1090" cy="120" r="7" class="node" style="animation-delay:1.59s"/>
<circle cx="1150" cy="60" r="5" class="node" style="animation-delay:2.12s"/>
<circle cx="880" cy="205" r="5" class="node" style="animation-delay:2.65s"/>
<circle cx="960" cy="245" r="7" class="node" style="animation-delay:0.18s"/>
<circle cx="1040" cy="190" r="5" class="node" style="animation-delay:0.71s"/>
<circle cx="1120" cy="235" r="5" class="node" style="animation-delay:1.24s"/>
<circle cx="1160" cy="165" r="7" class="node" style="animation-delay:1.77s"/>
<circle cx="800" cy="140" r="5" class="node" style="animation-delay:2.30s"/>
<circle cx="820" cy="250" r="5" class="node" style="animation-delay:2.83s"/>
<circle cx="985" cy="120" r="7" class="node" style="animation-delay:0.36s"/>
  <rect x="0" y="0" width="7" height="300" fill="url(#accent)"/>
</g>
<rect x="0.5" y="0.5" width="1199" height="299" rx="18" fill="none" stroke="#30363d"/>
<text x="64" y="128" class="name">Satvik Praveen</text>
<rect x="66" y="146" width="150" height="4" rx="2" fill="url(#accent)"/>
<text x="64" y="192" class="tag">PhD Researcher in Medical AI  ·  ML Engineer  ·  Generative AI</text>
<text x="64" y="228" class="sub">Ph.D. Computer Engineering, University of South Florida  ·  M.S. Data Science, Texas A&amp;M University</text>
</svg>
